# AST/ASF file generated using VICON BodyLanguage
# -----------------------------------------------
:version 1.10
:name VICON
:units
  mass 1.0
  length 0.45
  angle deg
:documentation
   .ast/.asf automatically generated from VICON data using
   VICON BodyBuilder and BodyLanguage model FoxedUp or BRILLIANT.MOD
:root
   order TX TY TZ RX RY RZ
   axis XYZ
   position 0 0 0  
   orientation 0 0 0 
:bonedata
  begin
     id 1 
     name lhipjoint
     direction 0.690799 -0.707083 0.151096 
     length 2.54797 
     axis 0 0 0  XYZ
  end
  begin
     id 2 
     name lfemur
     direction 0.34202 -0.939693 0  
     length 7.21646  
     axis 0 0 20  XYZ
    dof rx ry rz
    limits (-160.0 20.0)
           (-70.0 70.0)
           (-60.0 70.0)
  end
  begin
     id 3 
     name ltibia
     direction 0.34202 -0.939693 0   
     length 8.16759   
     axis 0 0 20   XYZ
    dof rx
    limits (-10.0 170.0)
  end
  begin
     id 4 
     name lfoot
     direction 0.0487203 -0.133858 0.989802   
     length 1.93375   
     axis -90 7.62852e-016 20   XYZ
    dof rx rz
    limits (-45.0 90.0)
           (-70.0 20.0)
  end
  begin
     id 5 
     name ltoes
     direction 1.53453e-011 -4.21783e-011 1   
     length 0.979747   
     axis -90 7.62852e-016 20   XYZ
    dof rx
    limits (-90.0 20.0)
  end
  begin
     id 6 
     name rhipjoint
     direction -0.694693 -0.703425 0.150315   
     length 2.56122  
     axis 0 0 0  XYZ 
  end
  begin
     id 7 
     name rfemur
     direction -0.34202 -0.939693 0   
     length 7.36786   
     axis 0 0 -20   XYZ
    dof rx ry rz
    limits (-160.0 20.0)
           (-70.0 70.0)
           (-70.0 60.0)
  end
  begin
     id 8 
     name rtibia
     direction -0.34202 -0.939693 0   
     length 8.07288   
     axis 0 0 -20   XYZ
    dof rx
    limits (-10.0 170.0)
 end
 begin
     id 9 
     name rfoot
     direction -0.0428397 -0.117701 0.992125   
     length 1.88295  
     axis -90 -7.62852e-016 -20   XYZ
    dof rx rz
    limits (-45.0 90.0)
           (-20.0 70.0)
  end
  begin
     id 10 
     name rtoes
     direction -1.53456e-011 -4.2187e-011 1   
     length 0.955578   
     axis -90 -7.62852e-016 -20   XYZ
    dof rx
    limits (-90.0 20.0)
  end
  begin
     id 11 
     name lowerback
     direction 0.0288145 0.999398 -0.0193241   
     length 1.92149   
     axis 0 0 0   XYZ
    dof rx ry rz
    limits (-20.0 45.0)
           (-30.0 30.0)
           (-30.0 30.0)
  end
  begin
     id 12 
     name upperback
     direction 0.0233784 0.998099 0.0570278   
     length 1.90435   
     axis 0 0 0   XYZ
    dof rx ry rz
    limits (-20.0 45.0)
           (-30.0 30.0)
           (-30.0 30.0)
  end
  begin
     id 13 
     name thorax
     direction 0.0096694 0.997833 0.0650817   
     length 1.9111   
     axis 0 0 0   XYZ
    dof rx ry rz
    limits (-20.0 45.0)
           (-30.0 30.0)
           (-30.0 30.0)
  end
  begin
     id 14 
     name lowerneck
     direction 0.00516803 0.999916 0.0118722   
     length 1.74664   
     axis 0 0 0   XYZ
    dof rx ry rz
    limits (-20.0 45.0)
           (-30.0 30.0)
           (-30.0 30.0)
  end
  begin
     id 15 
     name upperneck
     direction -0.0510851 0.996117 -0.071696   
     length 1.68498   
     axis 0 0 0   XYZ
    dof rx ry rz
    limits (-20.0 45.0)
           (-30.0 30.0)
           (-30.0 30.0)
  end
  begin
     id 16
     name head
     direction -0.019188 0.999436 -0.0275702  
     length 1.83483  
     axis 0 0 0   XYZ
    dof rx ry rz
    limits (-20.0 45.0)
           (-30.0 30.0)
           (-30.0 30.0)
  end
  begin
     id 17 
     name lclavicle
     direction 0.967006 0.248456 -0.0562957  
     length 3.39395  
     axis 0 0 0   XYZ
    dof ry rz
    limits (-20.0 10.0)
           (0.0 20.0)
  end
  begin
     id 18 
     name lhumerus
     direction 1 -4.48962e-011 -5.62711e-019   
     length 5.24318   
     axis 180 -30 -90   XYZ
    dof rx ry rz
    limits (-60.0 90.0)
           (-90.0 90.0)
           (-90.0 90.0)
  end
  begin
     id 19
     name lradius
     direction 1 -4.48966e-011 7.90625e-027   
     length 2.98999   
     axis 180 -30 -90   XYZ
    dof rx
    limits (-10.0 170.0)
  end
  begin
     id 20
     name lwrist
     direction 1 -4.48959e-011 1.61068e-026   
     length 1.49499   
     axis -9.31229e-015 90 90   XYZ
    dof ry
    limits (-180.0 0.0)
 end
  begin
     id 21 
     name lhand
     direction 1 -4.49017e-011 3.22136e-026   
     length 0.726745   
     axis -2.0555e-014 90 90   XYZ
    dof rx rz
    limits (-90.0 90.0)
           (-45.0 45.0)
  end
  begin
     id 22 
     name lfingers
     direction 1 -4.4898e-011 6.44272e-026   
     length 0.58592   
     axis -4.11101e-014 90 90   XYZ
    dof rx
    limits (0.0 90.0)
  end
  begin
     id 23
     name lthumb
     direction 0.707107 -6.34922e-011 0.707107   
     length 0.841268   
     axis -90 45 2.85299e-015   XYZ
    dof rx rz
    limits (-45.0 45.0)
           (-45.0 45.0)
  end
  begin
     id 24 
     name rclavicle
     direction -0.972232 0.230238 0.0419005   
     length 3.40416  
     axis 0 0 0   XYZ 
    dof ry rz
    limits (-10.0 20.0)
           (-20.0 0.0)
  end
  begin
     id 25 
     name rhumerus
     direction -1 -4.48976e-011 2.48487e-027  
     length 5.37045   
     axis 180 30 90   XYZ
    dof rx ry rz
    limits (-90.0 60.0)
           (-90.0 90.0)
           (-90.0 90.0)
  end
  begin
     id 26 
     name rradius
     direction -1 -4.48942e-011 7.87951e-027   
     length 2.92792   
     axis 180 30 90   XYZ
    dof rx
    limits (-10.0 170.0)
  end
  begin
     id 27 
     name rwrist
     direction -1 -4.48969e-011 1.61068e-026   
     length 1.46396   
     axis -9.31229e-015 -90 -90   XYZ
    dof ry
    limits (-180.0 0.0)
  end
  begin
     id 28
     name rhand
     direction -1 -4.49043e-011 3.22136e-026   
     length 0.784497   
     axis -2.0555e-014 -90 -90   XYZ
    dof rx rz
    limits (-90.0 90.0)
           (-45.0 45.0)
  end
  begin
     id 29
     name rfingers
     direction -1 -4.48823e-011 6.44272e-026   
     length 0.632482   
     axis -4.11101e-014 -90 -90   XYZ
    dof rx
    limits (0.0 90.0)
  end
  begin
     id 30
     name rthumb
     direction -0.707107 -6.34923e-011 0.707107   
     length 0.908121   
     axis -90 -45 -2.85299e-015   XYZ
    dof rx rz
    limits (-45.0 45.0)
           (-45.0 45.0)
  end
:hierarchy
  begin
    root lhipjoint rhipjoint lowerback
    lhipjoint lfemur
    lfemur ltibia
    ltibia lfoot
    lfoot ltoes
    rhipjoint rfemur
    rfemur rtibia
    rtibia rfoot
    rfoot rtoes
    lowerback upperback
    upperback thorax
    thorax lowerneck lclavicle rclavicle
    lowerneck upperneck
    upperneck head
    lclavicle lhumerus
    lhumerus lradius
    lradius lwrist
    lwrist lhand lthumb
    lhand lfingers
    rclavicle rhumerus
    rhumerus rradius
    rradius rwrist
    rwrist rhand rthumb
    rhand rfingers
  end

#!OML:ASF F:\VICON\USERDATA\INSTALL\rory3\rory3.ASF
:FULLY-SPECIFIED
:DEGREES
999
root 0.192676 18.2847 1.24322 21.7903 -0.541303 -0.198344
lowerback 4.37161 -0.741377 5.18763
upperback -5.46092 -0.262414 4.19277
thorax -8.23184 -0.297444 1.5547
lowerneck 12.7288 1.16141 3.82423
upperneck -17.0705 0.380934 -10.6099
head -7.29183 0.91158 -4.16326
rclavicle -3.06128e-014 1.11319e-014
rhumerus -30.6565 15.7289 -92.2529
rradius 136.686
rwrist 41.4564
rhand 18.8953 1.48683
rfingers 7.12502
rthumb 43.5046 -22.5784
lclavicle -3.06128e-014 1.11319e-014
lhumerus -43.835 -6.5857 90.6928
lradius 131.829
lwrist -27.566
lhand -10.0891 23.4923
lfingers 7.12502
lthumb 15.8978 52.8597
rfemur -25.2441 22.2232 11.7791
rtibia 12.8949
rfoot -18.8978 -30.3701
rtoes 23.6625
lfemur -22.5755 -15.8993 -12.8929
ltibia 13.2514
lfoot -5.05586 23.0012
ltoes -11.6518
1000
root 0.191093 18.2843 1.24646 21.7728 -0.541489 -0.245632
lowerback 4.32867 -0.738486 5.22224
upperback -5.42754 -0.259956 4.21452
thorax -8.17074 -0.296584 1.55622
lowerneck 12.7034 1.14545 3.82682
upperneck -17.0393 0.356634 -10.6346
head -7.27906 0.900779 -4.16828
rclavicle -8.74653e-015 2.8625e-014
rhumerus -30.6215 15.6684 -92.1813
rradius 136.742
rwrist 41.5604
rhand 19.1536 1.60905
rfingers 7.12502
rthumb 43.7458 -22.368
lclavicle -8.74653e-015 2.8625e-014
lhumerus -43.7779 -6.58164 90.6978
lradius 131.81
lwrist -27.5633
lhand -10.1313 23.539
lfingers 7.12502
lthumb 15.8572 52.9096
rfemur -25.237 22.2221 11.854
rtibia 12.9451
rfoot -18.9859 -30.2955
rtoes 24.0457
lfemur -22.5194 -15.8749 -12.8511
ltibia 13.2142
lfoot -4.95111 23.0058
ltoes -12.1876
1001
root 0.187796 18.2855 1.24955 21.7619 -0.541865 -0.163692
lowerback 4.32022 -0.744579 5.10509
upperback -5.43046 -0.278839 4.20777
thorax -8.16732 -0.299047 1.61629
lowerneck 12.7279 1.12564 3.85366
upperneck -16.9952 0.328737 -10.686
head -7.27118 0.890098 -4.18653
rclavicle -2.3059e-014 2.70347e-014
rhumerus -30.6444 15.6751 -92.1542
rradius 136.75
rwrist 41.4764
rhand 19.0161 1.62362
rfingers 7.12502
rthumb 43.6174 -22.4005
lclavicle -2.3059e-014 2.70347e-014
lhumerus -43.8112 -6.54789 90.7082
lradius 131.836
lwrist -27.5513
lhand -10.0622 23.5906
lfingers 7.12502
lthumb 15.9237 52.9559
rfemur -25.2652 22.28 11.7592
rtibia 13.0311
rfoot -19.0375 -30.3949
rtoes 23.9418
lfemur -22.4557 -15.8477 -12.9472
ltibia 13.1309
lfoot -4.88898 22.9648
ltoes -12.3457
1002
root 0.185423 18.2858 1.25283 21.7322 -0.536611 -0.0921016
lowerback 4.37533 -0.746361 5.04658
upperback -5.46422 -0.281737 4.17325
thorax -8.23557 -0.299135 1.61485
lowerneck 12.7577 1.0943 3.95017
upperneck -16.9169 0.299877 -10.7503
head -7.25268 0.875121 -4.21993
rclavicle -1.07344e-014 4.6118e-014
rhumerus -30.7668 15.799 -92.259
rradius 136.728
rwrist 41.4172
rhand 18.7469 1.25637
rfingers 7.12502
rthumb 43.366 -22.859
lclavicle -1.07344e-014 4.6118e-014
lhumerus -43.8952 -6.57377 90.6897
lradius 131.844
lwrist -27.5312
lhand -10.0646 23.5033
lfingers 7.12502
lthumb 15.9215 52.8689
rfemur -25.2794 22.366 11.6715
rtibia 13.1376
rfoot -19.2961 -30.4171
rtoes 24.1391
lfemur -22.3623 -15.8842 -13.0147
ltibia 13.0275
lfoot -4.8639 22.9239
ltoes -12.387
1003
root 0.184424 18.2867 1.25641 21.6608 -0.542347 -0.0504506
lowerback 4.47899 -0.74135 5.06334
upperback -5.48873 -0.266906 4.1237
thorax -8.32335 -0.29571 1.55423
lowerneck 12.7656 1.07898 3.93581
upperneck -16.8472 0.294082 -10.6812
head -7.23236 0.865933 -4.19189
rclavicle 3.97569e-016 1.43125e-014
rhumerus -30.9424 15.9758 -92.4269
rradius 136.701
rwrist 41.4124
rhand 18.4646 0.473364
rfingers 7.12502
rthumb 43.1021 -23.7364
lclavicle 3.97569e-016 1.43125e-014
lhumerus -43.9668 -6.65515 90.6536
lradius 131.844
lwrist -27.4649
lhand -10.0753 23.517
lfingers 7.12502
lthumb 15.9111 52.8833
rfemur -25.2554 22.338 11.6781
rtibia 13.2891
rfoot -19.4743 -30.312
rtoes 24.2379
lfemur -22.1807 -15.8615 -13.0971
ltibia 12.872
lfoot -4.68256 22.8696
ltoes -12.8335
1004
root 0.183101 18.2863 1.25841 21.6302 -0.519619 -0.0191052
lowerback 4.51927 -0.756599 5.04586
upperback -5.50499 -0.284789 4.11969
thorax -8.36477 -0.304108 1.56323
lowerneck 12.8242 1.06805 3.90823
upperneck -16.8452 0.277315 -10.6637
head -7.2439 0.85946 -4.18077
rclavicle 4.37326e-015 5.24792e-014
rhumerus -31.0435 16.018 -92.4481
rradius 136.684
rwrist 41.2797
rhand 18.2794 0.398844
rfingers 7.12502
rthumb 42.929 -23.8721
lclavicle 4.37326e-015 5.24792e-014
lhumerus -43.985 -6.67013 90.6535
lradius 131.803
lwrist -27.4825
lhand -10.0341 23.5511
lfingers 7.12502
lthumb 15.9509 52.9143
rfemur -25.2628 22.2569 11.701
rtibia 13.4066
rfoot -19.4404 -30.2765
rtoes 24.0201
lfemur -22.071 -15.8362 -13.1446
ltibia 12.7434
lfoot -4.60291 22.821
ltoes -12.9286
1005
root 0.180801 18.2856 1.26109 21.6225 -0.532867 0.044923
lowerback 4.49638 -0.764478 4.95844
upperback -5.4973 -0.305774 4.11271
thorax -8.34169 -0.309015 1.60617
lowerneck 12.8401 1.05668 3.85393
upperneck -16.8548 0.256903 -10.624
head -7.25206 0.850092 -4.15694
rclavicle -5.96354e-015 -2.06736e-014
rhumerus -31.022 15.8932 -92.3345
rradius 136.62
rwrist 40.9987
rhand 18.0064 0.983944
rfingers 7.12502
rthumb 42.6736 -23.3763
lclavicle -5.96354e-015 -2.06736e-014
lhumerus -43.9659 -6.68946 90.6487
lradius 131.772
lwrist -27.5034
lhand -9.98007 23.5045
lfingers 7.12502
lthumb 16.0028 52.8636
rfemur -25.3032 22.3148 11.621
rtibia 13.5109
rfoot -19.5777 -30.2798
rtoes 24.1436
lfemur -22.0092 -15.8683 -13.2041
ltibia 12.6542
lfoot -4.66187 22.8167
ltoes -12.6186
1006
root 0.179914 18.2845 1.26287 21.6176 -0.555874 0.0566443
lowerback 4.46417 -0.772299 4.94474
upperback -5.48072 -0.321568 4.10797
thorax -8.30454 -0.315619 1.60934
lowerneck 12.8783 1.07246 3.78241
upperneck -16.9048 0.272263 -10.5603
head -7.27449 0.858147 -4.12713
rclavicle -2.14687e-014 -4.77083e-015
rhumerus -30.9808 15.8833 -92.2882
rradius 136.557
rwrist 40.8689
rhand 17.7731 1.17592
rfingers 7.12502
rthumb 42.4552 -23.2598
lclavicle -2.14687e-014 -4.77083e-015
lhumerus -43.931 -6.71193 90.6258
lradius 131.764
lwrist -27.4805
lhand -9.99634 23.4958
lfingers 7.12502
lthumb 15.9872 52.8561
rfemur -25.3204 22.289 11.6221
rtibia 13.5743
rfoot -19.6926 -30.1609
rtoes 24.377
lfemur -22.0017 -15.9295 -13.1987
ltibia 12.6438
lfoot -4.74333 22.8901
ltoes -12.3011
1007
root 0.17902 18.2832 1.26476 21.6378 -0.553277 0.0638279
lowerback 4.44307 -0.772964 4.95547
upperback -5.48775 -0.323892 4.09378
thorax -8.29995 -0.317944 1.58835
lowerneck 12.9014 1.07048 3.83819
upperneck -16.9152 0.27363 -10.5987
head -7.28138 0.85946 -4.15028
rclavicle 1.19271e-014 -1.90833e-014
rhumerus -30.9708 15.8816 -92.2784
rradius 136.54
rwrist 40.8528
rhand 17.7938 1.14776
rfingers 7.12502
rthumb 42.4745 -23.2813
lclavicle 1.19271e-014 -1.90833e-014
lhumerus -43.944 -6.75712 90.6103
lradius 131.778
lwrist -27.4449
lhand -10.0505 23.4972
lfingers 7.12502
lthumb 15.935 52.8617
rfemur -25.365 22.2853 11.6073
rtibia 13.627
rfoot -19.8643 -30.1099
rtoes 24.7825
lfemur -22.0128 -15.8719 -13.2157
ltibia 12.6418
lfoot -4.57678 22.8229
ltoes -13.029
1008
root 0.176798 18.2823 1.26602 21.6464 -0.529209 -0.00955653
lowerback 4.46689 -0.782274 5.0347
upperback -5.49766 -0.326218 4.10628
thorax -8.32616 -0.323817 1.55868
lowerneck 12.9162 1.06585 3.9077
upperneck -16.9154 0.271335 -10.6558
head -7.28364 0.859413 -4.18121
rclavicle -1.03368e-014 3.18055e-015
rhumerus -30.9551 15.8474 -92.2532
rradius 136.576
rwrist 40.9546
rhand 18.0836 1.16511
rfingers 7.12502
rthumb 42.7458 -23.17
lclavicle -1.03368e-014 3.18055e-015
lhumerus -43.9761 -6.77978 90.5968
lradius 131.796
lwrist -27.4489
lhand -10.1217 23.5117
lfingers 7.12502
lthumb 15.8664 52.8816
rfemur -25.3929 22.3454 11.6753
rtibia 13.6533
rfoot -20.0835 -30.0963
rtoes 25.3572
lfemur -22.0235 -15.7626 -13.1507
ltibia 12.6734
lfoot -4.53884 22.7161
ltoes -13.1388
1009
root 0.175512 18.2819 1.26731 21.6494 -0.536023 -0.0258141
lowerback 4.48468 -0.782157 5.04734
upperback -5.50146 -0.323638 4.10145
thorax -8.34096 -0.323683 1.54674
lowerneck 12.8513 1.06886 3.92558
upperneck -16.8348 0.28603 -10.6481
head -7.24457 0.86154 -4.17948
rclavicle 7.15625e-015 1.59028e-015
rhumerus -30.9404 15.7273 -92.1666
rradius 136.634
rwrist 41.1631
rhand 18.4348 1.25723
rfingers 7.12502
rthumb 43.0743 -22.9624
lclavicle 7.15625e-015 1.59028e-015
lhumerus -44.0202 -6.81347 90.5804
lradius 131.817
lwrist -27.4387
lhand -10.1547 23.5189
lfingers 7.12502
lthumb 15.8347 52.8914
rfemur -25.4039 22.3582 11.6879
rtibia 13.6648
rfoot -19.9986 -30.1447
rtoes 25.1518
lfemur -22.057 -15.748 -13.1288
ltibia 12.7333
lfoot -4.67337 22.7123
ltoes -12.8218
1010
root 0.173173 18.2807 1.2688 21.6286 -0.570623 -0.0467002
lowerback 4.48764 -0.781245 5.02118
upperback -5.4746 -0.324738 4.12062
thorax -8.31301 -0.321435 1.58095
lowerneck 12.8604 1.0806 3.96054
upperneck -16.8469 0.299662 -10.6973
head -7.24862 0.870751 -4.20368
rclavicle 3.18055e-015 4.77083e-015
rhumerus -30.9171 15.747 -92.1071
rradius 136.618
rwrist 41.1919
rhand 18.4597 1.15659
rfingers 7.12502
rthumb 43.0976 -23.0548
lclavicle 3.18055e-015 4.77083e-015
lhumerus -44.0624 -6.80167 90.5995
lradius 131.857
lwrist -27.4407
lhand -10.1112 23.5381
lfingers 7.12502
lthumb 15.8765 52.9073
rfemur -25.394 22.3742 11.7246
rtibia 13.6847
rfoot -19.803 -30.2032
rtoes 24.5633
lfemur -22.0465 -15.7086 -13.1176
ltibia 12.7727
lfoot -4.81057 22.7247
ltoes -12.6451
1011
root 0.170492 18.2782 1.27083 21.6169 -0.600117 -0.087254
lowerback 4.43524 -0.774445 5.02624
upperback -5.41781 -0.321847 4.13879
thorax -8.2203 -0.318266 1.59398
lowerneck 12.8726 1.0778 3.99909
upperneck -16.9446 0.287438 -10.7454
head -7.28297 0.868828 -4.22835
rclavicle -1.31198e-014 1.43125e-014
rhumerus -30.8449 15.8295 -92.0993
rradius 136.56
rwrist 41.071
rhand 18.1963 1.06737
rfingers 7.12502
rthumb 42.8513 -23.2309
lclavicle -1.31198e-014 1.43125e-014
lhumerus -44.0169 -6.80737 90.5894
lradius 131.866
lwrist -27.4455
lhand -10.0395 23.5087
lfingers 7.12502
lthumb 15.9456 52.8723
rfemur -25.4339 22.4379 11.7632
rtibia 13.7664
rfoot -19.8358 -30.1623
rtoes 24.4621
lfemur -22.0045 -15.6225 -13.0964
ltibia 12.7406
lfoot -4.7955 22.6675
ltoes -12.6985
1012
root 0.168726 18.2763 1.27261 21.6223 -0.629949 -0.0169004
lowerback 4.3858 -0.796371 4.91861
upperback -5.37566 -0.366884 4.14286
thorax -8.14397 -0.332703 1.66088
lowerneck 12.8516 1.09134 3.99252
upperneck -17.0136 0.295028 -10.7668
head -7.30087 0.875518 -4.2368
rclavicle -2.3059e-014 6.83819e-014
rhumerus -30.7549 15.971 -92.101
rradius 136.515
rwrist 40.9283
rhand 17.9549 1.10732
rfingers 7.12502
rthumb 42.6254 -23.2697
lclavicle -2.3059e-014 6.83819e-014
lhumerus -43.9612 -6.76761 90.5877
lradius 131.856
lwrist -27.396
lhand -10.0709 23.5124
lfingers 7.12502
lthumb 15.9154 52.8784
rfemur -25.4761 22.4306 11.6838
rtibia 13.834
rfoot -20.0014 -30.0899
rtoes 24.7509
lfemur -21.9964 -15.5908 -13.1888
ltibia 12.7333
lfoot -4.70189 22.6186
ltoes -12.7364
1013
root 0.166312 18.2759 1.27243 21.645 -0.640663 0.0540417
lowerback 4.37724 -0.812811 4.81235
upperback -5.36735 -0.398927 4.14508
thorax -8.12834 -0.341827 1.72559
lowerneck 12.8565 1.08782 3.96471
upperneck -17.0585 0.282996 -10.7546
head -7.31755 0.871335 -4.22832
rclavicle 4.77083e-015 -6.36111e-015
rhumerus -30.7193 16.0463 -92.1063
rradius 136.507
rwrist 40.8305
rhand 17.9343 1.13768
rfingers 7.12502
rthumb 42.6061 -23.246
lclavicle 4.77083e-015 -6.36111e-015
lhumerus -43.9508 -6.76416 90.6154
lradius 131.845
lwrist -27.3663
lhand -9.99923 23.5316
lfingers 7.12502
lthumb 15.9844 52.8921
rfemur -25.5279 22.3602 11.6278
rtibia 13.8769
rfoot -19.6999 -30.2182
rtoes 24.0802
lfemur -22.0409 -15.4964 -13.2789
ltibia 12.7656
lfoot -4.56918 22.5089
ltoes -13.2616
